<svg width="111" height="115" viewBox="0 0 111 115" fill="none" xmlns="http://www.w3.org/2000/svg">
<path d="M46.5 4C69.9719 4 89 23.0251 89 46.4937C89 69.9621 69.9719 88.9873 46.5 88.9873C39.5283 88.9873 32.7944 87.3042 26.7621 84.1358L8.52787 88.8824C6.59718 89.3855 4.62432 88.228 4.12146 86.2975C3.96596 85.7009 3.96591 85.0741 4.12134 84.4771L8.86583 66.2541C5.6881 60.2166 4 53.4745 4 46.4937C4 23.0251 23.0279 4 46.5 4ZM46.5 61.3665C44.1527 61.3665 42.25 63.2689 42.25 65.6158C42.25 67.9628 44.1527 69.8652 46.5 69.8652C48.8473 69.8652 50.75 67.9628 50.75 65.6158C50.75 63.2689 48.8473 61.3665 46.5 61.3665ZM46.5 24.1845C40.0451 24.1845 34.8125 29.4164 34.8125 35.8703C34.8125 37.6304 36.2396 39.0573 38 39.0573C39.6137 39.0573 40.9474 37.8583 41.1586 36.3027L41.2151 35.3271C41.4871 32.6487 43.7494 30.5585 46.5 30.5585C49.4342 30.5585 51.8125 32.9367 51.8125 35.8703C51.8125 38.1598 51.2387 39.2923 49.0717 41.5313L47.7797 42.8452C44.5769 46.1792 43.3125 48.5725 43.3125 52.8677C43.3125 54.6278 44.7397 56.0547 46.5 56.0547C48.2603 56.0547 49.6875 54.6278 49.6875 52.8677C49.6875 50.5782 50.2613 49.4457 52.4283 47.2067L53.7203 45.8928C56.9231 42.5588 58.1875 40.1655 58.1875 35.8703C58.1875 29.4164 52.9549 24.1845 46.5 24.1845Z" fill="#7FA1F8"/>
<path d="M72.0095 60.7964C69.5638 58.8818 66 60.6358 66 63.7542V106.245C66 109.798 70.4544 111.357 72.644 108.57L83.0471 95.3287C83.8241 94.3399 85.0076 93.7633 86.2599 93.7633H103.269C106.814 93.7633 108.354 89.2488 105.555 87.0582L72.0095 60.7964Z" fill="#171717"/>
<path d="M64 87.4147C58.6285 89.7142 52.7129 90.9873 46.5 90.9873C39.4701 90.9873 32.666 89.3515 26.527 86.2637L9.03221 90.8177C9.03204 90.8178 9.03187 90.8178 9.03169 90.8179C6.03224 91.5992 2.9675 89.801 2.18613 86.8019L64 87.4147ZM64 87.4147V106.245C64 111.668 70.8357 114.109 74.2167 109.805L84.6197 96.5644C84.6197 96.5643 84.6198 96.5643 84.6198 96.5643C85.0193 96.0558 85.6242 95.7633 86.2599 95.7633H103.269C108.744 95.7633 111.061 88.8283 106.788 85.4834L85.1568 68.549C88.8749 62.048 91 54.519 91 46.4937C91 21.9202 71.0762 2 46.5 2C21.9236 2 2 21.9202 2 46.4937C2 53.5329 3.64066 60.3454 6.73771 66.4901L2.18586 83.9732L2.18584 83.9732C1.94444 84.9005 1.9444 85.8743 2.18605 86.8016L64 87.4147ZM39.2254 35.1251L39.221 35.1682L39.2185 35.2115L39.1675 36.0912C39.0649 36.6404 38.5797 37.0573 38 37.0573C37.3439 37.0573 36.8125 36.5255 36.8125 35.8703C36.8125 30.5212 41.1494 26.1845 46.5 26.1845C51.8506 26.1845 56.1875 30.5212 56.1875 35.8703C56.1875 37.8069 55.9052 39.1775 55.3391 40.4037C54.7598 41.6587 53.8206 42.9006 52.286 44.499L51.0023 45.8044L50.9967 45.8101L50.9912 45.8158C49.8797 46.9642 49.0074 47.9942 48.4478 49.1413C47.8565 50.3533 47.6875 51.5377 47.6875 52.8677C47.6875 53.523 47.1561 54.0547 46.5 54.0547C45.8439 54.0547 45.3125 53.523 45.3125 52.8677C45.3125 50.9311 45.5948 49.5605 46.1609 48.3342C46.7402 47.0793 47.6794 45.8374 49.214 44.239L50.4977 42.9335L50.5033 42.9279L50.5088 42.9222C51.6203 41.7738 52.4926 40.7438 53.0522 39.5967C53.6435 38.3847 53.8125 37.2003 53.8125 35.8703C53.8125 31.8319 50.5385 28.5585 46.5 28.5585C42.7128 28.5585 39.6 31.4358 39.2254 35.1251ZM44.25 65.6158C44.25 64.3738 45.257 63.3665 46.5 63.3665C47.743 63.3665 48.75 64.3738 48.75 65.6158C48.75 66.8579 47.743 67.8652 46.5 67.8652C45.257 67.8652 44.25 66.8579 44.25 65.6158Z" stroke="#F3F3F3" stroke-width="4"/>
</svg>
