<svg width="85" height="85" viewBox="0 0 85 85" fill="none" xmlns="http://www.w3.org/2000/svg">
<path d="M42.5 0C65.9719 0 85 19.0251 85 42.4937C85 65.9621 65.9719 84.9873 42.5 84.9873C35.5283 84.9873 28.7944 83.3042 22.7621 80.1358L4.52787 84.8824C2.59718 85.3855 0.624325 84.228 0.121465 82.2975C-0.0340427 81.7009 -0.0340854 81.0741 0.121337 80.4771L4.86583 62.2541C1.6881 56.2166 0 49.4745 0 42.4937C0 19.0251 19.0279 0 42.5 0ZM42.5 57.3665C40.1527 57.3665 38.25 59.2689 38.25 61.6158C38.25 63.9628 40.1527 65.8652 42.5 65.8652C44.8473 65.8652 46.75 63.9628 46.75 61.6158C46.75 59.2689 44.8473 57.3665 42.5 57.3665ZM42.5 20.1845C36.0451 20.1845 30.8125 25.4164 30.8125 31.8703C30.8125 33.6304 32.2396 35.0573 34 35.0573C35.6137 35.0573 36.9474 33.8583 37.1586 32.3027L37.2151 31.3271C37.4871 28.6487 39.7494 26.5585 42.5 26.5585C45.4342 26.5585 47.8125 28.9367 47.8125 31.8703C47.8125 34.1598 47.2387 35.2923 45.0717 37.5313L43.7797 38.8452C40.5769 42.1792 39.3125 44.5725 39.3125 48.8677C39.3125 50.6278 40.7396 52.0547 42.5 52.0547C44.2604 52.0547 45.6875 50.6278 45.6875 48.8677C45.6875 46.5782 46.2613 45.4457 48.4283 43.2067L49.7203 41.8928C52.9231 38.5588 54.1875 36.1655 54.1875 31.8703C54.1875 25.4164 48.9549 20.1845 42.5 20.1845Z" fill="#7FA1F8"/>
</svg>
