<svg width="172" height="57" viewBox="0 0 172 57" fill="none" xmlns="http://www.w3.org/2000/svg">
<path d="M9.275 26.56C3.5 26.385 0.875 22.115 0.7 16.76C0.595 12.595 2.065 7.8 4.305 4.79C5.95 2.585 8.015 1.325 10.08 1.185C12.95 0.974999 14.875 2.2 16.24 3.95C17.885 6.155 18.375 9.41 18.515 10.915C18.55 11.405 18.235 11.825 17.78 11.93C16.415 12.28 15.05 12.315 13.685 11.93C13.3 11.825 13.02 11.475 12.985 11.055C12.915 10.285 12.705 8.955 12.11 7.8C11.83 7.205 11.34 6.645 10.465 6.715C9.695 6.75 9.135 7.555 8.54 8.43C7.455 10.04 6.65 12.28 6.37 14.45C6.195 15.885 6.195 17.285 6.51 18.51C6.895 19.875 7.77 20.96 9.415 20.995C10.115 21.03 10.64 20.75 11.095 20.4C11.655 19.945 12.075 19.42 12.425 18.86C12.635 18.51 13.055 18.335 13.44 18.405C14.77 18.685 15.995 19.35 17.08 20.4C17.43 20.715 17.465 21.205 17.22 21.625C16.38 22.99 15.19 24.425 13.685 25.37C12.425 26.105 10.955 26.595 9.275 26.56ZM53.509 8.885C53.544 8.99 53.544 9.48 53.509 9.83C53.474 10.25 53.439 10.6 53.159 10.95C52.984 11.16 52.634 11.37 52.179 11.37L44.024 11.335C44.059 11.405 44.059 11.475 44.094 11.545C44.234 12.07 44.444 12.49 44.759 12.805C45.004 13.015 45.704 13.435 46.614 13.4C47.209 13.4 47.909 13.19 48.644 12.77C48.924 12.63 49.274 12.595 49.554 12.77C50.989 13.505 51.829 14.73 52.074 16.48C52.109 16.865 51.934 17.25 51.619 17.46C49.799 18.545 48.154 18.93 46.754 18.965C43.779 19.035 41.714 17.53 40.944 16.795C39.964 15.85 39.159 14.59 38.739 13.015C38.424 11.86 38.284 10.53 38.459 9.06C38.774 5.875 40.314 3.635 42.134 2.34C43.919 1.115 46.054 0.764999 48.014 1.36C49.589 1.85 51.339 3.145 52.459 5.21C53.019 6.225 53.404 7.485 53.509 8.885ZM44.444 7.94C45.459 7.94 46.579 7.94 47.629 7.94C47.629 7.905 47.594 7.87 47.594 7.835C47.279 7.275 46.859 6.82 46.439 6.68C45.774 6.505 45.144 6.89 44.689 7.52C44.584 7.66 44.514 7.8 44.444 7.94ZM50.639 19.805C51.934 20.715 52.529 22.115 52.459 23.935C52.459 24.355 52.214 24.705 51.794 24.845C51.584 24.915 51.304 25.02 51.129 25.055C48.539 25.86 46.369 26.035 44.444 25.895C40.524 25.545 37.654 23.69 34.749 21.87C32.789 20.68 30.829 19.455 28.204 19.385C27.154 20.015 26.349 20.435 25.999 20.61C25.894 22.465 25.824 24.005 25.789 24.81C25.789 25.23 25.509 25.615 25.089 25.72C23.654 26.14 22.254 26.105 20.889 25.58C20.504 25.405 20.259 25.02 20.259 24.6C20.364 22.395 21.239 3.53 21.239 3.11C21.274 2.305 21.939 1.675 22.744 1.64C23.374 1.605 24.004 1.605 24.319 1.605C26.489 1.605 28.974 1.745 31.039 2.27C33.944 3.005 36.114 4.545 36.954 6.68C37.829 8.955 37.199 11.405 35.379 13.645C34.959 14.17 34.504 14.66 34.014 15.15C34.854 15.535 35.659 15.955 36.464 16.445C38.564 17.67 40.524 19.175 42.904 19.945C44.549 20.47 46.439 20.575 48.749 19.945C48.889 19.945 49.414 19.77 49.764 19.665C50.079 19.56 50.394 19.63 50.639 19.805ZM31.354 9.76C31.599 9.375 31.914 9.06 31.774 8.675C31.599 8.185 30.969 8.045 30.304 7.835C29.289 7.485 28.064 7.31 26.839 7.205C26.769 7.205 26.699 7.205 26.629 7.205L26.314 14.065C27.259 13.47 28.309 12.735 29.254 11.93C30.094 11.265 30.829 10.53 31.354 9.76ZM56.0014 25.615C55.5814 25.51 55.2664 25.09 55.3014 24.635C55.3014 24.46 55.3014 24.285 55.3014 24.18C55.5814 17.565 56.6314 11.475 58.1364 7.625C59.1514 4.965 60.4814 3.145 61.8464 2.235C63.1764 1.29 64.6464 1.045 66.1514 1.465C67.3064 1.78 68.3564 2.515 69.2314 3.705C70.1414 4.965 70.8764 6.855 71.3664 9.06C72.5564 14.555 72.4864 22.43 72.4164 24.845C72.4164 25.3 72.1014 25.685 71.6464 25.79C70.2814 26.105 68.8814 26.07 67.5514 25.615C67.1314 25.475 66.8864 25.09 66.8864 24.67C66.8864 23.865 66.9214 22.465 66.8864 20.75C66.4664 20.785 66.0114 20.82 65.5914 20.855C64.0514 21.065 62.5464 21.31 61.0064 21.625C60.9364 22.675 60.8664 23.76 60.8314 24.81C60.7964 25.265 60.5164 25.65 60.0614 25.755C58.7314 26.035 57.3664 26 56.0014 25.615ZM62.0914 13.75C61.9514 14.415 61.8114 15.115 61.7064 15.85C62.7564 15.64 63.8414 15.5 64.9264 15.36C65.5214 15.29 66.0814 15.255 66.6414 15.185C66.6064 14.905 66.6064 14.625 66.5714 14.345C66.3264 12.175 66.0114 10.075 65.4514 8.43C65.2764 7.975 65.1014 7.59 64.9264 7.24C64.8914 7.17 64.8214 7.1 64.7864 7.03C64.5764 7.24 64.2964 7.59 64.1214 7.87C63.2814 9.27 62.6164 11.3 62.0914 13.75ZM102.016 15.92C102.016 16.06 102.051 16.515 102.016 16.865C101.946 17.285 101.911 17.67 101.631 17.985C101.456 18.195 101.141 18.405 100.651 18.405L92.496 18.37C92.531 18.44 92.531 18.51 92.566 18.58C92.706 19.105 92.951 19.525 93.266 19.84C93.511 20.05 94.176 20.47 95.121 20.435C95.716 20.435 96.381 20.26 97.116 19.84C97.396 19.665 97.746 19.665 98.061 19.805C99.461 20.54 100.301 21.8 100.546 23.515C100.616 23.935 100.441 24.32 100.091 24.495C98.306 25.58 96.661 25.965 95.226 26C92.251 26.07 90.186 24.565 89.416 23.83C88.436 22.885 87.631 21.625 87.211 20.05C86.896 18.895 86.756 17.565 86.931 16.13C87.246 12.91 88.786 10.67 90.641 9.375C92.391 8.15 94.526 7.835 96.486 8.395C98.061 8.885 99.846 10.18 100.931 12.245C101.491 13.26 101.911 14.555 102.016 15.92ZM92.916 14.975C93.931 14.975 95.051 14.975 96.136 14.975C96.101 14.94 96.066 14.905 96.066 14.87C95.751 14.31 95.331 13.855 94.911 13.715C94.281 13.54 93.616 13.925 93.161 14.555C93.091 14.695 92.986 14.835 92.916 14.975ZM92.041 7.59C89.906 7.975 87.701 7.905 85.426 7.66C85.251 12.35 84.831 22.15 84.726 24.81C84.691 25.23 84.411 25.615 83.991 25.72C82.556 26.14 81.156 26.105 79.791 25.58C79.406 25.405 79.161 25.02 79.161 24.6C79.266 21.94 79.721 11.86 79.896 7.1C78.146 6.995 76.396 7.065 74.611 7.625C74.296 7.73 73.911 7.66 73.631 7.415C72.546 6.365 72.091 4.965 72.126 3.32C72.161 2.9 72.406 2.515 72.826 2.41C73.141 2.305 73.526 2.165 73.806 2.095C76.361 1.465 78.881 1.43 81.366 1.64C84.026 1.885 86.651 2.375 89.136 2.305C90.711 2.27 92.216 1.99 93.686 1.115C94.001 0.939999 94.421 0.939999 94.736 1.15C95.961 1.955 96.731 3.145 97.186 4.65C97.291 5.07 97.116 5.525 96.766 5.735C95.226 6.715 93.651 7.275 92.041 7.59ZM6.09 46.69C5.075 46.095 3.99 45.08 3.045 43.4C1.925 41.405 0.91 38.185 0.7 33.075C0.7 32.655 0.98 32.235 1.4 32.095C2.73 31.71 4.095 31.675 5.495 32.025C5.915 32.13 6.23 32.48 6.265 32.935C6.335 35.315 6.65 37.17 7.07 38.605C7.42 39.935 7.875 40.845 8.365 41.44C8.575 41.65 8.82 41.825 8.925 41.895C9.17 41.895 9.415 41.72 9.66 41.51C10.325 40.95 10.885 40.04 11.41 38.745C12.005 37.205 12.495 35.21 12.81 32.655C12.88 32.235 13.23 31.885 13.65 31.815C15.05 31.605 16.415 31.745 17.71 32.235C18.13 32.375 18.375 32.83 18.34 33.285C18.305 33.495 18.27 33.74 18.27 33.88C17.57 38.99 16.205 42.21 14.735 44.135C13.755 45.465 12.705 46.305 11.62 46.83C11.55 49.245 11.375 53.235 11.305 54.81C11.27 55.23 10.99 55.615 10.57 55.72C9.135 56.14 7.735 56.105 6.37 55.58C5.985 55.405 5.74 55.02 5.775 54.6L6.09 46.69ZM26.5781 56.49C20.8031 56.35 18.1781 52.08 18.0031 46.725C17.8631 42.525 19.3681 37.73 21.6081 34.755C23.2531 32.55 25.3181 31.255 27.3831 31.115C29.9731 30.94 31.8631 31.955 33.2631 33.39C35.7831 36.05 36.2731 40.635 36.2731 40.635C36.2731 40.635 36.6581 43.4 36.1681 46.585C35.9931 47.985 35.6081 49.42 35.0131 50.75C34.3481 52.185 33.2981 53.655 31.8631 54.74C30.4281 55.86 28.6431 56.56 26.5781 56.49ZM23.6731 44.415C23.4981 45.85 23.4981 47.25 23.8131 48.475C24.1981 49.84 25.0731 50.89 26.7181 50.96C27.4181 50.96 28.0131 50.715 28.4681 50.33C29.1681 49.84 29.6581 49.105 29.9731 48.405C30.4631 47.355 30.6731 46.13 30.7781 45.045C30.9881 42.98 30.7431 41.16 30.7431 41.125C30.7431 41.125 30.6031 39.13 29.5881 37.66C29.2031 37.1 28.6431 36.61 27.7681 36.645C26.9981 36.715 26.2981 37.45 25.7381 38.325C24.6181 39.935 23.9531 42.21 23.6731 44.415ZM46.9965 56C44.4765 55.93 42.5865 55.02 41.1515 53.62C39.2615 51.73 38.2815 48.86 38.2115 45.675C38.2115 45.675 38.7015 35.42 38.8415 32.515C38.8415 32.06 39.1915 31.675 39.6465 31.57C41.0115 31.36 42.3415 31.465 43.6365 31.815C44.0915 31.955 44.3715 32.375 44.3715 32.83C44.2315 35.665 43.7415 45.535 43.7415 45.535C43.7765 46.935 44.0565 48.265 44.7215 49.245C45.2115 49.98 46.0165 50.435 47.1715 50.435C47.6615 50.47 48.1165 50.295 48.5015 50.05C48.9915 49.735 49.3765 49.245 49.6565 48.72C50.2515 47.635 50.3915 45.395 50.4615 42.875C50.6015 39.48 50.5315 35.7 50.5665 32.865C50.5665 32.41 50.8815 32.025 51.3365 31.92C52.5965 31.64 53.9265 31.71 55.3615 32.06C55.7815 32.165 56.0965 32.585 56.0965 33.04C56.0615 36.4 56.2015 41.16 55.9215 45.01C55.7115 47.74 55.2565 50.05 54.5565 51.38C53.8215 52.71 52.8065 53.865 51.5815 54.67C50.2865 55.545 48.7465 56.035 46.9965 56ZM58.503 55.615C58.118 55.44 57.838 55.055 57.873 54.635C57.978 52.43 58.853 33.565 58.853 33.145C58.888 32.34 59.553 31.71 60.358 31.675C60.988 31.64 61.618 31.64 61.898 31.64C64.103 31.64 66.588 31.78 68.653 32.305C71.593 33.04 73.728 34.58 74.568 36.715C75.443 38.99 74.813 41.44 72.993 43.68C72.503 44.31 71.908 44.94 71.243 45.5C72.118 46.41 72.923 47.425 73.658 48.51C74.848 50.26 75.408 51.275 76.178 53.305C76.318 53.655 76.248 54.075 75.933 54.355C74.813 55.44 73.448 55.93 71.908 55.895C71.523 55.895 71.138 55.65 70.998 55.265C70.683 54.46 69.983 52.885 69.073 51.625C68.338 50.61 67.568 49.7 66.728 48.86C65.258 49.77 64.068 50.435 63.613 50.645C63.508 52.5 63.438 54.04 63.403 54.845C63.403 55.265 63.123 55.65 62.703 55.755C61.268 56.175 59.868 56.14 58.503 55.615ZM64.243 37.24L63.928 44.1C64.873 43.505 65.923 42.77 66.868 41.965C67.708 41.3 68.478 40.565 68.968 39.795C69.213 39.41 69.528 39.095 69.388 38.71C69.213 38.22 68.548 38.08 67.918 37.87C66.868 37.52 65.678 37.345 64.453 37.24C64.383 37.24 64.313 37.24 64.243 37.24ZM87.7773 55.58C87.3923 55.405 87.1473 55.02 87.1473 54.6C87.2523 52.535 87.8473 37.8 88.0573 33.11C88.0923 32.305 88.7223 31.675 89.5623 31.64C89.8423 31.64 90.1223 31.605 90.2273 31.605C92.6423 31.57 95.5473 31.675 97.9273 32.27C100.867 33.005 103.002 34.545 103.842 36.68C104.717 38.955 104.087 41.405 102.267 43.645C99.5373 47.075 93.9023 50.085 92.8523 50.61C92.7823 52.5 92.7123 54.005 92.6773 54.81C92.6773 55.23 92.3973 55.615 91.9773 55.72C90.5423 56.14 89.1423 56.105 87.7773 55.58ZM93.1673 43.4L93.1323 44.1C94.1123 43.505 95.1623 42.77 96.1423 41.93C96.9823 41.265 97.7523 40.53 98.2423 39.76C98.5223 39.375 98.8023 39.06 98.6623 38.675C98.4873 38.185 97.8223 38.045 97.1923 37.835C96.1773 37.485 94.9523 37.31 93.7273 37.205C93.6223 37.205 93.5173 37.205 93.4473 37.205L93.3073 40.565C93.2373 41.51 93.2023 42.455 93.1673 43.4ZM113.641 56.49C107.866 56.35 105.241 52.08 105.066 46.725C104.926 42.525 106.431 37.73 108.671 34.755C110.316 32.55 112.381 31.255 114.446 31.115C117.036 30.94 118.926 31.955 120.326 33.39C122.846 36.05 123.336 40.635 123.336 40.635C123.336 40.635 123.721 43.4 123.231 46.585C123.056 47.985 122.671 49.42 122.076 50.75C121.411 52.185 120.361 53.655 118.926 54.74C117.491 55.86 115.706 56.56 113.641 56.49ZM110.736 44.415C110.561 45.85 110.561 47.25 110.876 48.475C111.261 49.84 112.136 50.89 113.781 50.96C114.481 50.96 115.076 50.715 115.531 50.33C116.231 49.84 116.721 49.105 117.036 48.405C117.526 47.355 117.736 46.13 117.841 45.045C118.051 42.98 117.806 41.16 117.806 41.125C117.806 41.125 117.666 39.13 116.651 37.66C116.266 37.1 115.706 36.61 114.831 36.645C114.061 36.715 113.361 37.45 112.801 38.325C111.681 39.935 111.016 42.21 110.736 44.415ZM126.079 54.075C126.079 54.075 125.869 53.9 125.624 53.725C125.309 53.445 125.169 52.955 125.344 52.57C125.939 51.205 126.919 50.155 128.284 49.42C128.599 49.28 128.949 49.28 129.264 49.49C129.684 49.77 130.314 50.19 130.594 50.295C131.959 50.925 133.429 51.03 134.654 50.855C135.039 50.785 135.494 50.645 135.844 50.505L135.739 50.4C135.319 50.05 134.829 49.735 134.304 49.42C132.484 48.335 130.384 47.25 128.984 45.78C127.304 44.03 126.324 41.825 126.954 38.745C127.969 33.985 131.819 31.115 135.144 30.975C137.104 30.905 138.994 31.605 140.394 33.285C141.514 34.65 142.389 36.785 142.389 39.865C142.389 39.865 142.354 40.705 142.319 41.265C142.284 41.65 142.074 42 141.724 42.14C140.289 42.665 138.224 42.42 137.209 41.755C136.929 41.545 136.754 41.23 136.789 40.88C136.789 40.46 136.824 39.865 136.824 39.865C136.824 38.675 136.684 37.765 136.299 37.135C136.089 36.715 135.774 36.505 135.389 36.54C134.059 36.575 132.799 37.975 132.414 39.865C132.029 41.685 133.464 42.455 134.759 43.26C136.544 44.345 138.434 45.29 139.659 46.48C141.164 47.95 141.934 49.7 141.479 51.975C141.269 52.99 140.639 54.005 139.519 54.845C138.469 55.58 136.859 56.21 134.969 56.42C132.204 56.7 128.879 56.105 126.079 54.075ZM145.619 37.45C145.199 37.45 144.849 37.24 144.709 36.89C143.939 35.245 144.009 33.81 144.604 32.48C144.779 32.13 145.129 31.92 145.479 31.885C148.384 31.85 160.984 31.71 161.544 31.675C161.964 31.675 162.384 31.99 162.489 32.41C162.909 33.775 162.909 35.175 162.559 36.505C162.454 36.925 162.069 37.24 161.614 37.24C161.614 37.24 159.304 37.275 156.434 37.31C156.259 41.79 155.804 52.08 155.699 54.81C155.699 55.23 155.384 55.615 154.964 55.72C153.564 56.14 152.129 56.105 150.764 55.58C150.379 55.405 150.134 55.02 150.169 54.6L150.869 37.38C148.209 37.415 146.004 37.45 145.619 37.45ZM170.302 31.745C170.757 31.885 171.072 32.27 171.072 32.76C170.932 35.595 170.512 45.395 170.407 48.055C170.407 48.51 170.092 48.86 169.707 48.965C168.272 49.385 166.872 49.35 165.507 48.825C165.087 48.685 164.842 48.3 164.877 47.845C164.982 45.22 165.402 35.385 165.507 32.55C165.542 32.06 165.892 31.675 166.347 31.605C167.747 31.395 169.077 31.465 170.302 31.745ZM168.167 50.33C168.727 50.33 169.252 50.54 169.637 50.96C170.057 51.345 170.267 51.87 170.267 52.43V53.9C170.267 54.46 170.057 54.985 169.637 55.37C169.252 55.79 168.727 56 168.167 56H166.697C166.137 56 165.612 55.79 165.227 55.37C164.807 54.985 164.597 54.46 164.597 53.9V52.43C164.597 51.87 164.807 51.345 165.227 50.96C165.612 50.54 166.137 50.33 166.697 50.33H168.167Z" fill="#F3F3F3"/>
</svg>
