<svg width="38" height="38" viewBox="0 0 38 38" fill="none" xmlns="http://www.w3.org/2000/svg">
<path d="M32.3235 5.59033C29.2209 2.46281 25.1259 0.517386 20.7446 0.0894544C16.3634 -0.338478 11.9703 0.7779 8.32275 3.24612C4.67524 5.71434 2.00188 9.37973 0.763569 13.6104C-0.474741 17.841 -0.200401 22.3718 1.53929 26.4215C1.72061 26.798 1.78011 27.2217 1.70947 27.6335L0.0454652 35.6441C-0.0186442 35.9512 -0.00555295 36.2695 0.0835626 36.5703C0.172678 36.8711 0.335025 37.145 0.556013 37.3674C0.737172 37.5475 0.952868 37.689 1.1901 37.7834C1.42734 37.8778 1.6812 37.9231 1.93638 37.9166H2.31457L10.4077 36.288C10.819 36.2384 11.2362 36.2972 11.6179 36.4584C15.6616 38.2007 20.1856 38.4754 24.4099 37.2353C28.6343 35.9951 32.2942 33.3178 34.7587 29.6648C37.2233 26.0118 38.338 21.6122 37.9107 17.2243C37.4834 12.8365 35.5409 8.73544 32.418 5.62821L32.3235 5.59033ZM11.391 20.8729C11.017 20.8729 10.6514 20.7618 10.3404 20.5537C10.0295 20.3456 9.78712 20.0499 9.644 19.7038C9.50088 19.3578 9.46344 18.977 9.5364 18.6097C9.60936 18.2423 9.78945 17.9049 10.0539 17.64C10.3184 17.3752 10.6553 17.1948 11.0221 17.1218C11.3889 17.0487 11.7691 17.0862 12.1146 17.2295C12.4601 17.3729 12.7554 17.6156 12.9632 17.927C13.171 18.2384 13.2819 18.6046 13.2819 18.9791C13.2819 19.4814 13.0827 19.9631 12.7281 20.3182C12.3734 20.6733 11.8925 20.8729 11.391 20.8729ZM18.9547 20.8729C18.5807 20.8729 18.2151 20.7618 17.9041 20.5537C17.5932 20.3456 17.3508 20.0499 17.2077 19.7038C17.0646 19.3578 17.0271 18.977 17.1001 18.6097C17.173 18.2423 17.3531 17.9049 17.6176 17.64C17.882 17.3752 18.219 17.1948 18.5858 17.1218C18.9526 17.0487 19.3328 17.0862 19.6783 17.2295C20.0238 17.3729 20.3191 17.6156 20.5269 17.927C20.7347 18.2384 20.8456 18.6046 20.8456 18.9791C20.8456 19.4814 20.6464 19.9631 20.2917 20.3182C19.9371 20.6733 19.4562 20.8729 18.9547 20.8729ZM26.5183 20.8729C26.1444 20.8729 25.7788 20.7618 25.4678 20.5537C25.1568 20.3456 24.9145 20.0499 24.7714 19.7038C24.6282 19.3578 24.5908 18.977 24.6638 18.6097C24.7367 18.2423 24.9168 17.9049 25.1813 17.64C25.4457 17.3752 25.7826 17.1948 26.1494 17.1218C26.5162 17.0487 26.8964 17.0862 27.242 17.2295C27.5875 17.3729 27.8828 17.6156 28.0906 17.927C28.2984 18.2384 28.4093 18.6046 28.4093 18.9791C28.4093 19.4814 28.21 19.9631 27.8554 20.3182C27.5008 20.6733 27.0198 20.8729 26.5183 20.8729Z" fill="#BDC9E9"/>
</svg>
