<svg width="30" height="26" viewBox="0 0 30 26" fill="none" xmlns="http://www.w3.org/2000/svg">
<path d="M28.2836 8.31909C27.303 5.59172 25.4021 3.29335 22.9086 1.82021C20.4151 0.347077 17.4853 -0.208503 14.6242 0.249254C11.7631 0.70701 9.15013 2.14942 7.23567 4.32781C5.32121 6.50619 4.22527 9.28404 4.13679 12.1825C4.14027 12.4573 4.05796 12.7265 3.90134 12.9524L0.682255 17.2664C0.55865 17.4317 0.47798 17.6251 0.447497 17.8292C0.417013 18.0334 0.437672 18.2418 0.507614 18.4359C0.565564 18.5936 0.654839 18.738 0.770058 18.8602C0.885277 18.9824 1.02405 19.08 1.17803 19.1471L1.40353 19.2522L6.68202 20.5309C6.94105 20.6157 7.17344 20.7667 7.35625 20.969C9.28308 23.132 11.9043 24.5535 14.7679 24.9883C17.6315 25.4232 20.5581 24.8442 23.0431 23.3511C25.5282 21.8581 27.4159 19.5445 28.3809 16.8094C29.346 14.0742 29.3277 11.0889 28.3294 8.36796L28.2836 8.31909ZM11.5536 11.6126C11.3306 11.5086 11.1435 11.3408 11.0159 11.1303C10.8884 10.9197 10.8261 10.676 10.8369 10.4299C10.8478 10.1838 10.9313 9.94632 11.0769 9.74756C11.2226 9.5488 11.4237 9.39766 11.6551 9.31325C11.8864 9.22885 12.1374 9.21497 12.3764 9.27336C12.6155 9.33176 12.8317 9.45982 12.9979 9.64134C13.1641 9.82285 13.2727 10.0497 13.31 10.2931C13.3474 10.5366 13.3117 10.7857 13.2076 11.0091C13.068 11.3086 12.8153 11.5404 12.5051 11.6536C12.1949 11.7668 11.8527 11.752 11.5536 11.6126ZM16.0637 13.7153C15.8407 13.6113 15.6535 13.4434 15.526 13.2329C15.3984 13.0224 15.3361 12.7787 15.347 12.5325C15.3578 12.2864 15.4413 12.049 15.587 11.8502C15.7326 11.6514 15.9338 11.5003 16.1651 11.4159C16.3964 11.3315 16.6474 11.3176 16.8865 11.376C17.1255 11.4344 17.3418 11.5625 17.508 11.744C17.6741 11.9255 17.7828 12.1523 17.8201 12.3958C17.8574 12.6392 17.8217 12.8884 17.7176 13.1117C17.578 13.4112 17.3253 13.643 17.0151 13.7562C16.7049 13.8694 16.3627 13.8547 16.0637 13.7153ZM20.5737 15.8179C20.3507 15.7139 20.1636 15.5461 20.036 15.3356C19.9084 15.125 19.8461 14.8813 19.857 14.6352C19.8679 14.3891 19.9514 14.1516 20.097 13.9529C20.2426 13.7541 20.4438 13.603 20.6751 13.5186C20.9064 13.4342 21.1575 13.4203 21.3965 13.4787C21.6355 13.5371 21.8518 13.6651 22.018 13.8466C22.1842 14.0282 22.2928 14.255 22.3301 14.4984C22.3674 14.7419 22.3318 14.991 22.2277 15.2144C22.088 15.5139 21.8353 15.7457 21.5252 15.8589C21.215 15.9721 20.8727 15.9573 20.5737 15.8179Z" fill="#7FA1F8"/>
</svg>
