<svg width="21" height="21" viewBox="0 0 21 21" fill="none" xmlns="http://www.w3.org/2000/svg">
<g id="&#240;&#159;&#166;&#134; icon &#34;google&#34;">
<path id="Vector" d="M20.7957 8.39691H19.95V8.35358H10.5V12.5304H16.4341C15.5683 14.9618 13.2421 16.7072 10.5 16.7072C7.02081 16.7072 4.19999 13.9019 4.19999 10.442C4.19999 6.98202 7.02081 4.17679 10.5 4.17679C12.106 4.17679 13.567 4.77929 14.6795 5.76345L17.6494 2.80993C15.7741 1.07187 13.2657 0 10.5 0C4.70137 0 0 4.67539 0 10.442C0 16.2085 4.70137 20.8839 10.5 20.8839C16.2986 20.8839 21 16.2085 21 10.442C21 9.74184 20.9275 9.05841 20.7957 8.39691Z" fill="white"/>
<path id="Vector_2" d="M1.21062 5.58176L4.66039 8.09775C5.59384 5.79947 7.85448 4.17679 10.5 4.17679C12.1059 4.17679 13.567 4.77929 14.6795 5.76345L17.6494 2.80993C15.7741 1.07187 13.2657 0 10.5 0C6.46691 0 2.96936 2.26434 1.21062 5.58176Z" fill="white"/>
<path id="Vector_3" d="M10.5002 20.8839C13.2123 20.8839 15.6766 19.8517 17.5399 18.1732L14.2901 15.4384C13.2359 16.2325 11.9255 16.7071 10.5002 16.7071C7.76911 16.7071 5.45019 14.9753 4.57659 12.5585L1.15254 15.182C2.89029 18.5637 6.41933 20.8839 10.5002 20.8839Z" fill="white"/>
<path id="Vector_4" d="M20.7958 8.39691H19.95V8.35358H10.5V12.5304H16.4341C16.0183 13.6983 15.2628 14.7054 14.2884 15.439C14.2889 15.4385 14.2894 15.4385 14.29 15.4379L17.5397 18.1727C17.3098 18.3805 21 15.663 21 10.442C21 9.74184 20.9275 9.05841 20.7958 8.39691Z" fill="white"/>
</g>
</svg>
