<svg width="20" height="17" viewBox="0 0 20 17" fill="none" xmlns="http://www.w3.org/2000/svg">
<path id="Vector" d="M3.25 13.4212C1.45507 13.4212 0 12.1193 0 10.5133V2.90793C0 1.30192 1.45507 0 3.25 0H16.75C18.5449 0 20 1.30192 20 2.90793V10.5133C20 12.1193 18.5449 13.4212 16.75 13.4212H11.0125L5.99868 16.7771C5.44585 17.1471 4.6625 17.046 4.24901 16.5514C4.08736 16.3579 4 16.123 4 15.8817L3.99921 13.4212H3.25ZM10.5135 12.0791H16.75C17.7165 12.0791 18.5 11.378 18.5 10.5133V2.90793C18.5 2.04315 17.7165 1.34212 16.75 1.34212H3.25C2.2835 1.34212 1.5 2.04315 1.5 2.90793V10.5133C1.5 11.378 2.2835 12.0791 3.25 12.0791H5.49879L5.499 12.75L5.49986 15.4349L10.5135 12.0791Z" fill="#212121"/>
</svg>
