<svg width="15" height="18" viewBox="0 0 15 18" fill="none" xmlns="http://www.w3.org/2000/svg">
<path id="Vector" d="M11.3423 3.5683C11.3423 1.49299 10.3788 0 8.80166 0C7.93443 0 7.63687 0.511073 7.32597 1.69936C7.2625 1.94484 7.23132 2.06436 7.19836 2.18216C7.113 2.48704 6.96444 3.00609 6.753 3.73826C6.74733 3.75788 6.73897 3.77636 6.72815 3.79343L4.30546 7.60562C3.73245 8.50728 2.88696 9.20034 1.89324 9.58295L1.49328 9.73694C0.439678 10.1427 -0.172022 11.2506 0.0427399 12.3645L0.38457 14.1374C0.588599 15.1955 1.38608 16.0376 2.42707 16.2942L8.87315 17.883C11.0122 18.4103 13.1743 17.1058 13.7185 14.9597L14.9142 10.2436C15.289 8.76546 14.4012 7.26168 12.9314 6.88479C12.7096 6.82792 12.4817 6.79916 12.2527 6.79916H10.7119C11.1311 5.41143 11.3423 4.34079 11.3423 3.5683ZM1.28719 12.1218C1.18958 11.6156 1.46762 11.1118 1.94653 10.9275L2.34649 10.7734C3.59351 10.2933 4.65451 9.4236 5.37359 8.29209L7.79626 4.47992C7.87232 4.36018 7.93096 4.2301 7.97035 4.09364C8.18272 3.35851 8.33204 2.8367 8.41858 2.52745C8.455 2.3972 8.48957 2.26509 8.55185 2.02376C8.71233 1.4104 8.79126 1.27479 8.80166 1.27479C9.53494 1.27479 10.0747 2.11111 10.0747 3.5683C10.0747 4.31999 9.79937 5.5531 9.2433 7.23551C9.10691 7.64815 9.41232 8.07393 9.84475 8.07393H12.2527C12.376 8.07393 12.4988 8.0894 12.6182 8.12008C13.4097 8.32303 13.8877 9.13277 13.6858 9.92867L12.4901 14.6446C12.1178 16.1131 10.6385 17.0056 9.17494 16.6449L2.72884 15.0561C2.1683 14.9179 1.73889 14.4645 1.62903 13.8946L1.28719 12.1218Z" fill="#141421"/>
</svg>
